<svg xmlns="http://www.w3.org/2000/svg" width="364" height="511" viewBox="0 0 364 511" fill="none">
<g fill="#000000" fill-rule="evenodd">
<path d="M 168 323 L 168 385 L 171 386 L 173 388 L 174 388 L 177 391 L 180 392 L 185 396 L 188 397 L 191 400 L 194 400 L 197 397 L 200 396 L 205 392 L 208 391 L 211 388 L 212 388 L 217 384 L 217 347 L 216 346 L 214 346 L 213 345 L 212 345 L 210 343 L 209 343 L 208 342 L 207 342 L 206 341 L 205 341 L 204 340 L 203 340 L 202 339 L 201 339 L 198 337 L 196 337 L 195 336 L 194 336 L 193 335 L 190 334 L 188 332 L 187 332 L 186 331 L 185 331 L 184 330 L 183 330 L 182 329 L 181 329 L 180 328 L 179 328 L 176 326 L 174 326 L 173 325 L 172 325 L 171 324 Z"/>
<path d="M 334 284 L 334 285 L 335 286 L 337 286 L 337 285 L 336 284 Z"/>
<path d="M 21 284 L 20 284 L 19 285 L 19 286 L 20 286 L 21 285 Z"/>
<path d="M 71 190 L 71 194 L 72 194 L 72 190 Z"/>
<path d="M 229 174 L 229 224 L 230 225 L 250 225 L 251 226 L 251 276 L 270 286 L 272 286 L 276 288 L 281 292 L 283 292 L 285 294 L 293 298 L 295 298 L 303 303 L 305 303 L 306 302 L 306 177 L 305 175 Z"/>
<path d="M 80 175 L 80 271 L 248 355 L 246 398 L 197 427 L 190 428 L 138 397 L 136 321 L 80 292 L 80 396 L 91 421 L 110 437 L 191 482 L 258 447 L 290 426 L 298 416 L 305 396 L 306 330 L 135 242 L 136 225 L 157 224 L 157 174 Z"/>
<path d="M 58 113 L 59 156 L 130 154 L 168 155 L 168 252 L 217 276 L 217 155 L 251 154 L 330 156 L 330 116 L 328 113 L 322 112 L 97 111 Z"/>
<path d="M 95 102 L 95 104 L 96 105 L 102 105 L 103 104 L 148 104 L 149 103 L 236 103 L 237 104 L 284 104 L 285 105 L 289 105 L 290 104 L 290 101 L 281 100 L 280 99 L 270 99 L 269 98 L 252 97 L 251 96 L 232 96 L 231 95 L 156 95 L 155 96 L 135 96 L 134 97 L 123 97 L 122 98 L 116 98 L 115 99 L 99 100 Z"/>
<path d="M 75 42 L 86 68 L 94 96 L 137 91 L 198 89 L 263 92 L 289 97 L 291 96 L 303 58 L 310 43 L 309 42 L 294 52 L 271 61 L 248 62 L 237 79 L 233 79 L 232 78 L 241 61 L 218 51 L 204 37 L 192 14 L 186 30 L 173 46 L 164 53 L 144 61 L 145 66 L 153 77 L 152 79 L 149 79 L 136 62 L 114 61 L 98 55 Z"/>
</g></svg>